name Walk6.mot
datacolumns 19
datarows 27
range 1.65200000 1.67800000
endheader

                time	   L_ground_force_vx	   L_ground_force_vy	   L_ground_force_vz	   L_ground_force_px	   L_ground_force_py	   L_ground_force_pz	   R_ground_force_vx	   R_ground_force_vy	   R_ground_force_vz	   R_ground_force_px	   R_ground_force_py	   R_ground_force_pz	   L_ground_torque_x	   L_ground_torque_y	   L_ground_torque_z	   R_ground_torque_x	   R_ground_torque_y	   R_ground_torque_z	
          1.65200000	         -0.02383589	          0.45235271	         -0.05740769	          0.00053037	          0.00000000	          0.00031955	         19.72415340	        673.73044424	         -9.64147216	         -0.11032064	          0.00000000	          0.32656250	          0.00000000	         -0.00010337	          0.00000000	          0.00000000	          0.89294476	          0.00000000	
          1.65300000	         -0.02644880	          0.46888183	         -0.05891127	          0.00054307	          0.00000000	          0.00032679	         20.29735964	        676.07049325	         -9.71317506	         -0.11008172	          0.00000000	          0.32657188	          0.00000000	         -0.00010855	          0.00000000	          0.00000000	          0.86791829	          0.00000000	
          1.65400000	         -0.02919530	          0.48501047	         -0.06031128	          0.00055470	          0.00000000	          0.00033335	         20.88093179	        678.40292708	         -9.78677129	         -0.10984471	          0.00000000	          0.32658108	          0.00000000	         -0.00011376	          0.00000000	          0.00000000	          0.84284002	          0.00000000	
          1.65500000	         -0.03207643	          0.50063482	         -0.06159231	          0.00056512	          0.00000000	          0.00033914	         21.47495474	        680.72715577	         -9.86218964	         -0.10960966	          0.00000000	          0.32659011	          0.00000000	         -0.00011899	          0.00000000	          0.00000000	          0.81772428	          0.00000000	
          1.65600000	         -0.03509282	          0.51564349	         -0.06273800	          0.00057418	          0.00000000	          0.00034407	         22.07950903	        683.04259145	         -9.93935118	         -0.10937659	          0.00000000	          0.32659895	          0.00000000	         -0.00012421	          0.00000000	          0.00000000	          0.79258638	          0.00000000	
          1.65700000	         -0.03824458	          0.52991727	         -0.06373105	          0.00058171	          0.00000000	          0.00034804	         22.69467044	        685.34864576	        -10.01816842	         -0.10914556	          0.00000000	          0.32660761	          0.00000000	         -0.00012940	          0.00000000	          0.00000000	          0.76744277	          0.00000000	
          1.65800000	         -0.04153128	          0.54332894	         -0.06455318	          0.00058753	          0.00000000	          0.00035094	         23.32050944	        687.64472823	        -10.09854414	         -0.10891657	          0.00000000	          0.32661609	          0.00000000	         -0.00013454	          0.00000000	          0.00000000	          0.74231150	          0.00000000	
          1.65900000	         -0.04495186	          0.55574299	         -0.06518511	          0.00059147	          0.00000000	          0.00035266	         23.95709074	        689.93024549	        -10.18036972	         -0.10868966	          0.00000000	          0.32662438	          0.00000000	         -0.00013961	          0.00000000	          0.00000000	          0.71721274	          0.00000000	
          1.66000000	         -0.04850466	          0.56701544	         -0.06560655	          0.00059334	          0.00000000	          0.00035308	         24.60447312	        692.20460123	        -10.26352339	         -0.10846485	          0.00000000	          0.32663248	          0.00000000	         -0.00014457	          0.00000000	          0.00000000	          0.69216928	          0.00000000	
          1.66100000	         -0.05218728	          0.57699367	         -0.06579621	          0.00059292	          0.00000000	          0.00035208	         25.26270945	        694.46719678	        -10.34786850	         -0.10824216	          0.00000000	          0.32664038	          0.00000000	         -0.00014939	          0.00000000	          0.00000000	          0.66720700	          0.00000000	
          1.66200000	         -0.05599658	          0.58551619	         -0.06573175	          0.00059002	          0.00000000	          0.00034954	         25.93184690	        696.71743232	        -10.43325248	         -0.10802159	          0.00000000	          0.32664809	          0.00000000	         -0.00015404	          0.00000000	          0.00000000	          0.64235514	          0.00000000	
          1.66300000	         -0.05992860	          0.59241254	         -0.06538984	          0.00058441	          0.00000000	          0.00034532	         26.61192722	        698.95470872	        -10.51950637	         -0.10780315	          0.00000000	          0.32665559	          0.00000000	         -0.00015849	          0.00000000	          0.00000000	          0.61764625	          0.00000000	
          1.66400000	         -0.06397850	          0.59750313	         -0.06474611	          0.00057587	          0.00000000	          0.00033927	         27.30298690	        701.17842970	        -10.60644508	         -0.10758685	          0.00000000	          0.32666287	          0.00000000	         -0.00016270	          0.00000000	          0.00000000	          0.59311593	          0.00000000	
          1.66500000	         -0.06814052	          0.60059912	         -0.06377515	          0.00056416	          0.00000000	          0.00033127	         28.00505699	        703.38800389	        -10.69386817	         -0.10737266	          0.00000000	          0.32666993	          0.00000000	         -0.00016663	          0.00000000	          0.00000000	          0.56880246	          0.00000000	
          1.66600000	         -0.07240788	          0.60150238	         -0.06245059	          0.00054902	          0.00000000	          0.00032115	         28.71816228	        705.58284689	        -10.78156136	         -0.10716060	          0.00000000	          0.32667675	          0.00000000	         -0.00017024	          0.00000000	          0.00000000	          0.54474636	          0.00000000	
          1.66700000	         -0.07677274	          0.60000544	         -0.06074503	          0.00053022	          0.00000000	          0.00030877	         29.44231941	        707.76238287	        -10.86929900	         -0.10695065	          0.00000000	          0.32668333	          0.00000000	         -0.00017347	          0.00000000	          0.00000000	          0.52098989	          0.00000000	
          1.66800000	         -0.08122614	          0.59589142	         -0.05863011	          0.00050747	          0.00000000	          0.00029396	         30.17753418	        709.92604612	        -10.95684761	         -0.10674281	          0.00000000	          0.32668965	          0.00000000	         -0.00017629	          0.00000000	          0.00000000	          0.49757658	          0.00000000	
          1.66900000	         -0.08575792	          0.58893412	         -0.05607652	          0.00048052	          0.00000000	          0.00027656	         30.92379807	        712.07328200	        -11.04397040	         -0.10653707	          0.00000000	          0.32669570	          0.00000000	         -0.00017865	          0.00000000	          0.00000000	          0.47455053	          0.00000000	
          1.67000000	         -0.09035664	          0.57889808	         -0.05305404	          0.00044908	          0.00000000	          0.00025640	         31.68108495	        714.20354773	        -11.13043194	         -0.10633343	          0.00000000	          0.32670148	          0.00000000	         -0.00018048	          0.00000000	          0.00000000	          0.45195566	          0.00000000	
          1.67100000	         -0.09500953	          0.56553864	         -0.04953160	          0.00041286	          0.00000000	          0.00023331	         32.44934872	        716.31631273	        -11.21600241	         -0.10613187	          0.00000000	          0.32670697	          0.00000000	         -0.00018175	          0.00000000	          0.00000000	          0.42983492	          0.00000000	
          1.67200000	         -0.09970242	          0.54860215	         -0.04547727	          0.00037157	          0.00000000	          0.00020711	         33.22852247	        718.41105919	        -11.30046086	         -0.10593238	          0.00000000	          0.32671215	          0.00000000	         -0.00018237	          0.00000000	          0.00000000	          0.40822958	          0.00000000	
          1.67300000	         -0.10441962	          0.52782616	         -0.04085837	          0.00032491	          0.00000000	          0.00017762	         34.01851946	        720.48728246	        -11.38359749	         -0.10573497	          0.00000000	          0.32671701	          0.00000000	         -0.00018231	          0.00000000	          0.00000000	          0.38717859	          0.00000000	
          1.67400000	         -0.10914394	          0.50293968	         -0.03564152	          0.00027257	          0.00000000	          0.00014466	         34.81923592	        722.54449143	        -11.46521514	         -0.10553961	          0.00000000	          0.32672156	          0.00000000	         -0.00018148	          0.00000000	          0.00000000	          0.36671815	          0.00000000	
          1.67500000	         -0.11385650	          0.47366353	         -0.02979271	          0.00021424	          0.00000000	          0.00010803	         35.63055496	        724.58220830	        -11.54513030	         -0.10534629	          0.00000000	          0.32672577	          0.00000000	         -0.00017983	          0.00000000	          0.00000000	          0.34688128	          0.00000000	
          1.67600000	         -0.11853676	          0.43971071	         -0.02327734	          0.00014961	          0.00000000	          0.00006756	         36.45235110	        726.59996758	        -11.62317370	         -0.10515501	          0.00000000	          0.32672965	          0.00000000	         -0.00017728	          0.00000000	          0.00000000	          0.32769752	          0.00000000	
          1.67700000	         -0.12316239	          0.40078686	         -0.01606041	          0.00007836	          0.00000000	          0.00002305	         37.28449446	        728.59731440	        -11.69919056	         -0.10496576	          0.00000000	          0.32673318	          0.00000000	         -0.00017376	          0.00000000	          0.00000000	          0.30919271	          0.00000000	
          1.67800000	         -0.12770920	          0.35659079	         -0.00810651	          0.00000015	          0.00000000	         -0.00002570	         38.12685448	        730.57380246	        -11.77304025	         -0.10477853	          0.00000000	          0.32673636	          0.00000000	         -0.00016920	          0.00000000	          0.00000000	          0.29138879	          0.00000000	
